<svg width="256" height="256" viewBox="0 0 256 256" fill="none" xmlns="http://www.w3.org/2000/svg">
<circle cx="128" cy="128" r="128" fill="#25EF8E"/>
<path d="M25.6001 94.3359L119.04 39.6799V63.7045L25.6001 117.76V94.3359Z" fill="white"/>
<path d="M91.9313 136.053L120.103 152.137L120.103 175.287L71.7828 147.686L91.9313 136.053Z" fill="white"/>
<path d="M25.6001 161.664L119.04 216.32V192.295L25.6001 138.24V161.664Z" fill="white"/>
<path d="M25.6001 133.12L119.04 80.7128V103.863L25.6001 156.16V133.12Z" fill="white"/>
<path d="M231.68 161.664L136.96 216.32V192.295L231.68 138.24V161.664Z" fill="white"/>
<path d="M165 119.946L136.829 103.863L136.828 80.7128L185.149 108.314L165 119.946Z" fill="white"/>
<path d="M231.68 94.3359L136.96 39.6799V63.7045L231.68 117.76V94.3359Z" fill="white"/>
<path d="M231.68 122.88L136.96 175.287V152.137L231.68 99.8399V122.88Z" fill="white"/>
</svg>
